<mxfile host="app.diagrams.net" modified="2021-06-04T13:00:53.175Z" agent="5.0 (Windows NT 10.0; Win64; x64) AppleWebKit/537.36 (KHTML, like Gecko) Chrome/90.0.4430.212 Safari/537.36" etag="iL_4SoBl3bOinfj0GPlq" version="14.7.6" type="github">
  <diagram id="RqSzgveTQK4QmxU6jOhQ" name="Page-1">
    <mxGraphModel dx="862" dy="484" grid="0" gridSize="10" guides="1" tooltips="1" connect="1" arrows="1" fold="1" page="0" pageScale="1" pageWidth="850" pageHeight="1100" math="0" shadow="0">
      <root>
        <mxCell id="0" />
        <mxCell id="1" parent="0" />
        <mxCell id="V0XN5CRiZY2vASkGpkIL-1" value="User" style="rounded=0;whiteSpace=wrap;html=1;" vertex="1" parent="1">
          <mxGeometry x="70" y="200" width="120" height="60" as="geometry" />
        </mxCell>
        <mxCell id="V0XN5CRiZY2vASkGpkIL-2" value="Survey Porta;" style="ellipse;whiteSpace=wrap;html=1;aspect=fixed;" vertex="1" parent="1">
          <mxGeometry x="380" y="180" width="80" height="80" as="geometry" />
        </mxCell>
        <mxCell id="V0XN5CRiZY2vASkGpkIL-3" value="Creator" style="rounded=0;whiteSpace=wrap;html=1;" vertex="1" parent="1">
          <mxGeometry x="660" y="190" width="120" height="60" as="geometry" />
        </mxCell>
        <mxCell id="V0XN5CRiZY2vASkGpkIL-9" value="" style="endArrow=classic;html=1;" edge="1" parent="1" source="V0XN5CRiZY2vASkGpkIL-3" target="V0XN5CRiZY2vASkGpkIL-2">
          <mxGeometry width="50" height="50" relative="1" as="geometry">
            <mxPoint x="400" y="280" as="sourcePoint" />
            <mxPoint x="450" y="222" as="targetPoint" />
          </mxGeometry>
        </mxCell>
        <mxCell id="V0XN5CRiZY2vASkGpkIL-10" value="Create a report" style="text;html=1;align=center;verticalAlign=middle;resizable=0;points=[];autosize=1;strokeColor=none;" vertex="1" parent="1">
          <mxGeometry x="200" y="350" width="100" height="20" as="geometry" />
        </mxCell>
        <mxCell id="V0XN5CRiZY2vASkGpkIL-11" value="" style="endArrow=classic;html=1;" edge="1" parent="1" source="V0XN5CRiZY2vASkGpkIL-1" target="V0XN5CRiZY2vASkGpkIL-2">
          <mxGeometry width="50" height="50" relative="1" as="geometry">
            <mxPoint x="400" y="280" as="sourcePoint" />
            <mxPoint x="410" y="230" as="targetPoint" />
          </mxGeometry>
        </mxCell>
        <mxCell id="V0XN5CRiZY2vASkGpkIL-12" value="Request to extend" style="edgeLabel;html=1;align=center;verticalAlign=middle;resizable=0;points=[];" vertex="1" connectable="0" parent="V0XN5CRiZY2vASkGpkIL-11">
          <mxGeometry x="-0.2423" y="3" relative="1" as="geometry">
            <mxPoint as="offset" />
          </mxGeometry>
        </mxCell>
        <mxCell id="V0XN5CRiZY2vASkGpkIL-14" value="Creates Survey" style="text;html=1;align=center;verticalAlign=middle;resizable=0;points=[];autosize=1;strokeColor=none;" vertex="1" parent="1">
          <mxGeometry x="500" y="110" width="100" height="20" as="geometry" />
        </mxCell>
        <mxCell id="V0XN5CRiZY2vASkGpkIL-15" value="Expiration date" style="text;html=1;align=center;verticalAlign=middle;resizable=0;points=[];autosize=1;strokeColor=none;" vertex="1" parent="1">
          <mxGeometry x="520" y="320" width="100" height="20" as="geometry" />
        </mxCell>
        <mxCell id="V0XN5CRiZY2vASkGpkIL-18" value="Create Survey" style="ellipse;whiteSpace=wrap;html=1;aspect=fixed;" vertex="1" parent="1">
          <mxGeometry x="440" y="520" width="80" height="80" as="geometry" />
        </mxCell>
        <mxCell id="V0XN5CRiZY2vASkGpkIL-19" value="Send Survey" style="ellipse;whiteSpace=wrap;html=1;aspect=fixed;" vertex="1" parent="1">
          <mxGeometry x="270" y="600" width="80" height="80" as="geometry" />
        </mxCell>
        <mxCell id="V0XN5CRiZY2vASkGpkIL-20" value="Creator" style="rounded=0;whiteSpace=wrap;html=1;" vertex="1" parent="1">
          <mxGeometry x="650" y="510" width="120" height="60" as="geometry" />
        </mxCell>
        <mxCell id="V0XN5CRiZY2vASkGpkIL-21" value="Attend Surveys" style="ellipse;whiteSpace=wrap;html=1;aspect=fixed;" vertex="1" parent="1">
          <mxGeometry x="430" y="830" width="80" height="80" as="geometry" />
        </mxCell>
        <mxCell id="V0XN5CRiZY2vASkGpkIL-22" value="Generate reports" style="ellipse;whiteSpace=wrap;html=1;aspect=fixed;" vertex="1" parent="1">
          <mxGeometry x="430" y="940" width="80" height="80" as="geometry" />
        </mxCell>
        <mxCell id="V0XN5CRiZY2vASkGpkIL-23" value="Request and Extend" style="ellipse;whiteSpace=wrap;html=1;aspect=fixed;" vertex="1" parent="1">
          <mxGeometry x="430" y="720" width="80" height="80" as="geometry" />
        </mxCell>
        <mxCell id="V0XN5CRiZY2vASkGpkIL-24" value="" style="ellipse;whiteSpace=wrap;html=1;aspect=fixed;" vertex="1" parent="1">
          <mxGeometry x="190" y="830" width="80" height="80" as="geometry" />
        </mxCell>
        <mxCell id="V0XN5CRiZY2vASkGpkIL-25" value="Participant" style="rounded=0;whiteSpace=wrap;html=1;" vertex="1" parent="1">
          <mxGeometry x="150" y="730" width="120" height="60" as="geometry" />
        </mxCell>
        <mxCell id="V0XN5CRiZY2vASkGpkIL-26" value="" style="edgeStyle=segmentEdgeStyle;endArrow=classic;html=1;" edge="1" parent="1" source="V0XN5CRiZY2vASkGpkIL-25" target="V0XN5CRiZY2vASkGpkIL-24">
          <mxGeometry width="50" height="50" relative="1" as="geometry">
            <mxPoint x="400" y="860" as="sourcePoint" />
            <mxPoint x="450" y="810" as="targetPoint" />
          </mxGeometry>
        </mxCell>
        <mxCell id="V0XN5CRiZY2vASkGpkIL-27" value="Accept/Decline" style="text;html=1;align=center;verticalAlign=middle;resizable=0;points=[];autosize=1;strokeColor=none;" vertex="1" parent="1">
          <mxGeometry x="170" y="810" width="100" height="20" as="geometry" />
        </mxCell>
        <mxCell id="V0XN5CRiZY2vASkGpkIL-28" value="" style="edgeStyle=segmentEdgeStyle;endArrow=classic;html=1;" edge="1" parent="1" source="V0XN5CRiZY2vASkGpkIL-25" target="V0XN5CRiZY2vASkGpkIL-23">
          <mxGeometry width="50" height="50" relative="1" as="geometry">
            <mxPoint x="400" y="860" as="sourcePoint" />
            <mxPoint x="450" y="810" as="targetPoint" />
          </mxGeometry>
        </mxCell>
        <mxCell id="V0XN5CRiZY2vASkGpkIL-29" value="Accept/Decline" style="text;html=1;align=center;verticalAlign=middle;resizable=0;points=[];autosize=1;strokeColor=none;" vertex="1" parent="1">
          <mxGeometry x="300" y="730" width="100" height="20" as="geometry" />
        </mxCell>
        <mxCell id="V0XN5CRiZY2vASkGpkIL-30" value="" style="edgeStyle=segmentEdgeStyle;endArrow=classic;html=1;" edge="1" parent="1" source="V0XN5CRiZY2vASkGpkIL-19" target="V0XN5CRiZY2vASkGpkIL-25">
          <mxGeometry width="50" height="50" relative="1" as="geometry">
            <mxPoint x="400" y="660" as="sourcePoint" />
            <mxPoint x="450" y="610" as="targetPoint" />
          </mxGeometry>
        </mxCell>
        <mxCell id="V0XN5CRiZY2vASkGpkIL-31" value="Receive Survey" style="text;html=1;align=center;verticalAlign=middle;resizable=0;points=[];autosize=1;strokeColor=none;" vertex="1" parent="1">
          <mxGeometry x="170" y="630" width="100" height="20" as="geometry" />
        </mxCell>
        <mxCell id="V0XN5CRiZY2vASkGpkIL-32" value="" style="edgeStyle=segmentEdgeStyle;endArrow=classic;html=1;" edge="1" parent="1" source="V0XN5CRiZY2vASkGpkIL-20" target="V0XN5CRiZY2vASkGpkIL-18">
          <mxGeometry width="50" height="50" relative="1" as="geometry">
            <mxPoint x="400" y="660" as="sourcePoint" />
            <mxPoint x="450" y="610" as="targetPoint" />
            <Array as="points">
              <mxPoint x="710" y="630" />
              <mxPoint x="480" y="630" />
            </Array>
          </mxGeometry>
        </mxCell>
        <mxCell id="V0XN5CRiZY2vASkGpkIL-33" value="Email" style="text;html=1;align=center;verticalAlign=middle;resizable=0;points=[];autosize=1;strokeColor=none;" vertex="1" parent="1">
          <mxGeometry x="575" y="610" width="50" height="20" as="geometry" />
        </mxCell>
        <mxCell id="V0XN5CRiZY2vASkGpkIL-34" value="" style="edgeStyle=segmentEdgeStyle;endArrow=classic;html=1;exitX=0.75;exitY=1;exitDx=0;exitDy=0;" edge="1" parent="1" source="V0XN5CRiZY2vASkGpkIL-20" target="V0XN5CRiZY2vASkGpkIL-18">
          <mxGeometry width="50" height="50" relative="1" as="geometry">
            <mxPoint x="400" y="660" as="sourcePoint" />
            <mxPoint x="450" y="610" as="targetPoint" />
            <Array as="points">
              <mxPoint x="740" y="680" />
              <mxPoint x="480" y="680" />
            </Array>
          </mxGeometry>
        </mxCell>
        <mxCell id="V0XN5CRiZY2vASkGpkIL-35" value="Expiration date" style="text;html=1;align=center;verticalAlign=middle;resizable=0;points=[];autosize=1;strokeColor=none;" vertex="1" parent="1">
          <mxGeometry x="570" y="660" width="100" height="20" as="geometry" />
        </mxCell>
        <mxCell id="V0XN5CRiZY2vASkGpkIL-36" value="" style="edgeStyle=segmentEdgeStyle;endArrow=classic;html=1;" edge="1" parent="1" source="V0XN5CRiZY2vASkGpkIL-20" target="V0XN5CRiZY2vASkGpkIL-18">
          <mxGeometry width="50" height="50" relative="1" as="geometry">
            <mxPoint x="400" y="660" as="sourcePoint" />
            <mxPoint x="450" y="610" as="targetPoint" />
            <Array as="points">
              <mxPoint x="710" y="460" />
              <mxPoint x="480" y="460" />
            </Array>
          </mxGeometry>
        </mxCell>
        <mxCell id="V0XN5CRiZY2vASkGpkIL-37" value="Create Survey" style="text;html=1;align=center;verticalAlign=middle;resizable=0;points=[];autosize=1;strokeColor=none;" vertex="1" parent="1">
          <mxGeometry x="545" y="470" width="90" height="20" as="geometry" />
        </mxCell>
        <mxCell id="V0XN5CRiZY2vASkGpkIL-38" value="" style="edgeStyle=segmentEdgeStyle;endArrow=classic;html=1;entryX=0.932;entryY=1.023;entryDx=0;entryDy=0;entryPerimeter=0;" edge="1" parent="1" source="V0XN5CRiZY2vASkGpkIL-23" target="V0XN5CRiZY2vASkGpkIL-20">
          <mxGeometry width="50" height="50" relative="1" as="geometry">
            <mxPoint x="400" y="660" as="sourcePoint" />
            <mxPoint x="450" y="610" as="targetPoint" />
          </mxGeometry>
        </mxCell>
        <mxCell id="V0XN5CRiZY2vASkGpkIL-39" value="" style="edgeStyle=segmentEdgeStyle;endArrow=classic;html=1;" edge="1" parent="1" source="V0XN5CRiZY2vASkGpkIL-2" target="V0XN5CRiZY2vASkGpkIL-1">
          <mxGeometry width="50" height="50" relative="1" as="geometry">
            <mxPoint x="400" y="260" as="sourcePoint" />
            <mxPoint x="160" y="240" as="targetPoint" />
            <Array as="points">
              <mxPoint x="420" y="350" />
              <mxPoint x="160" y="350" />
            </Array>
          </mxGeometry>
        </mxCell>
        <mxCell id="V0XN5CRiZY2vASkGpkIL-40" value="" style="edgeStyle=segmentEdgeStyle;endArrow=classic;html=1;" edge="1" parent="1" source="V0XN5CRiZY2vASkGpkIL-3">
          <mxGeometry width="50" height="50" relative="1" as="geometry">
            <mxPoint x="400" y="260" as="sourcePoint" />
            <mxPoint x="450" y="250" as="targetPoint" />
            <Array as="points">
              <mxPoint x="720" y="350" />
              <mxPoint x="450" y="350" />
            </Array>
          </mxGeometry>
        </mxCell>
        <mxCell id="V0XN5CRiZY2vASkGpkIL-41" value="" style="edgeStyle=segmentEdgeStyle;endArrow=classic;html=1;" edge="1" parent="1" source="V0XN5CRiZY2vASkGpkIL-3">
          <mxGeometry width="50" height="50" relative="1" as="geometry">
            <mxPoint x="400" y="260" as="sourcePoint" />
            <mxPoint x="450" y="210" as="targetPoint" />
            <Array as="points">
              <mxPoint x="720" y="100" />
              <mxPoint x="450" y="100" />
            </Array>
          </mxGeometry>
        </mxCell>
        <mxCell id="V0XN5CRiZY2vASkGpkIL-43" value="" style="edgeStyle=segmentEdgeStyle;endArrow=classic;html=1;" edge="1" parent="1" source="V0XN5CRiZY2vASkGpkIL-1" target="V0XN5CRiZY2vASkGpkIL-2">
          <mxGeometry width="50" height="50" relative="1" as="geometry">
            <mxPoint x="400" y="260" as="sourcePoint" />
            <mxPoint x="450" y="210" as="targetPoint" />
            <Array as="points">
              <mxPoint x="130" y="120" />
              <mxPoint x="420" y="120" />
            </Array>
          </mxGeometry>
        </mxCell>
        <mxCell id="V0XN5CRiZY2vASkGpkIL-44" value="Expiration Date" style="text;html=1;align=center;verticalAlign=middle;resizable=0;points=[];autosize=1;strokeColor=none;" vertex="1" parent="1">
          <mxGeometry x="220" y="100" width="100" height="20" as="geometry" />
        </mxCell>
        <mxCell id="V0XN5CRiZY2vASkGpkIL-45" value="" style="edgeStyle=segmentEdgeStyle;endArrow=classic;html=1;" edge="1" parent="1" source="V0XN5CRiZY2vASkGpkIL-24" target="V0XN5CRiZY2vASkGpkIL-21">
          <mxGeometry width="50" height="50" relative="1" as="geometry">
            <mxPoint x="400" y="760" as="sourcePoint" />
            <mxPoint x="450" y="710" as="targetPoint" />
          </mxGeometry>
        </mxCell>
        <mxCell id="V0XN5CRiZY2vASkGpkIL-46" value="Survey Result" style="strokeWidth=2;html=1;shape=mxgraph.flowchart.annotation_1;align=left;pointerEvents=1;rotation=0;flipH=1;" vertex="1" parent="1">
          <mxGeometry x="620" y="850" width="150" height="60" as="geometry" />
        </mxCell>
        <mxCell id="V0XN5CRiZY2vASkGpkIL-47" value="" style="edgeStyle=segmentEdgeStyle;endArrow=classic;html=1;" edge="1" parent="1" source="V0XN5CRiZY2vASkGpkIL-46" target="V0XN5CRiZY2vASkGpkIL-22">
          <mxGeometry width="50" height="50" relative="1" as="geometry">
            <mxPoint x="400" y="860" as="sourcePoint" />
            <mxPoint x="480" y="970" as="targetPoint" />
            <Array as="points">
              <mxPoint x="695" y="970" />
            </Array>
          </mxGeometry>
        </mxCell>
        <mxCell id="V0XN5CRiZY2vASkGpkIL-48" value="Generate Result" style="text;html=1;align=center;verticalAlign=middle;resizable=0;points=[];autosize=1;strokeColor=none;" vertex="1" parent="1">
          <mxGeometry x="580" y="980" width="100" height="20" as="geometry" />
        </mxCell>
        <mxCell id="V0XN5CRiZY2vASkGpkIL-49" value="" style="edgeStyle=segmentEdgeStyle;endArrow=classic;html=1;" edge="1" parent="1" source="V0XN5CRiZY2vASkGpkIL-21" target="V0XN5CRiZY2vASkGpkIL-46">
          <mxGeometry width="50" height="50" relative="1" as="geometry">
            <mxPoint x="400" y="860" as="sourcePoint" />
            <mxPoint x="450" y="810" as="targetPoint" />
          </mxGeometry>
        </mxCell>
        <mxCell id="V0XN5CRiZY2vASkGpkIL-50" value="" style="edgeStyle=segmentEdgeStyle;endArrow=classic;html=1;" edge="1" parent="1" source="V0XN5CRiZY2vASkGpkIL-22" target="V0XN5CRiZY2vASkGpkIL-25">
          <mxGeometry width="50" height="50" relative="1" as="geometry">
            <mxPoint x="400" y="860" as="sourcePoint" />
            <mxPoint x="450" y="810" as="targetPoint" />
            <Array as="points">
              <mxPoint x="170" y="1000" />
            </Array>
          </mxGeometry>
        </mxCell>
        <mxCell id="V0XN5CRiZY2vASkGpkIL-51" value="Email" style="strokeWidth=2;html=1;shape=mxgraph.flowchart.annotation_1;align=left;pointerEvents=1;" vertex="1" parent="1">
          <mxGeometry x="270" y="440" width="110" height="40" as="geometry" />
        </mxCell>
        <mxCell id="V0XN5CRiZY2vASkGpkIL-52" value="Survey" style="strokeWidth=2;html=1;shape=mxgraph.flowchart.annotation_1;align=left;pointerEvents=1;" vertex="1" parent="1">
          <mxGeometry x="270" y="490" width="110" height="40" as="geometry" />
        </mxCell>
        <mxCell id="V0XN5CRiZY2vASkGpkIL-53" value="" style="edgeStyle=segmentEdgeStyle;endArrow=classic;html=1;" edge="1" parent="1" source="V0XN5CRiZY2vASkGpkIL-52">
          <mxGeometry width="50" height="50" relative="1" as="geometry">
            <mxPoint x="400" y="560" as="sourcePoint" />
            <mxPoint x="310" y="610" as="targetPoint" />
          </mxGeometry>
        </mxCell>
        <mxCell id="V0XN5CRiZY2vASkGpkIL-54" value="" style="edgeStyle=segmentEdgeStyle;endArrow=classic;html=1;" edge="1" parent="1" source="V0XN5CRiZY2vASkGpkIL-51" target="V0XN5CRiZY2vASkGpkIL-19">
          <mxGeometry width="50" height="50" relative="1" as="geometry">
            <mxPoint x="400" y="560" as="sourcePoint" />
            <mxPoint x="450" y="510" as="targetPoint" />
          </mxGeometry>
        </mxCell>
        <mxCell id="V0XN5CRiZY2vASkGpkIL-55" value="" style="edgeStyle=segmentEdgeStyle;endArrow=classic;html=1;" edge="1" parent="1" source="V0XN5CRiZY2vASkGpkIL-18" target="V0XN5CRiZY2vASkGpkIL-51">
          <mxGeometry width="50" height="50" relative="1" as="geometry">
            <mxPoint x="400" y="560" as="sourcePoint" />
            <mxPoint x="450" y="510" as="targetPoint" />
            <Array as="points">
              <mxPoint x="470" y="420" />
              <mxPoint x="325" y="420" />
            </Array>
          </mxGeometry>
        </mxCell>
        <mxCell id="V0XN5CRiZY2vASkGpkIL-56" value="" style="edgeStyle=segmentEdgeStyle;endArrow=classic;html=1;" edge="1" parent="1" source="V0XN5CRiZY2vASkGpkIL-18" target="V0XN5CRiZY2vASkGpkIL-52">
          <mxGeometry width="50" height="50" relative="1" as="geometry">
            <mxPoint x="400" y="560" as="sourcePoint" />
            <mxPoint x="340" y="540" as="targetPoint" />
          </mxGeometry>
        </mxCell>
        <mxCell id="V0XN5CRiZY2vASkGpkIL-57" value="Receive Report" style="text;html=1;align=center;verticalAlign=middle;resizable=0;points=[];autosize=1;strokeColor=none;" vertex="1" parent="1">
          <mxGeometry x="230" y="1000" width="100" height="20" as="geometry" />
        </mxCell>
        <mxCell id="V0XN5CRiZY2vASkGpkIL-58" value="" style="ellipse;whiteSpace=wrap;html=1;aspect=fixed;" vertex="1" parent="1">
          <mxGeometry x="390" y="1340" width="80" height="80" as="geometry" />
        </mxCell>
        <mxCell id="V0XN5CRiZY2vASkGpkIL-59" value="" style="ellipse;whiteSpace=wrap;html=1;aspect=fixed;" vertex="1" parent="1">
          <mxGeometry x="390" y="1440" width="80" height="80" as="geometry" />
        </mxCell>
        <mxCell id="V0XN5CRiZY2vASkGpkIL-60" value="" style="ellipse;whiteSpace=wrap;html=1;aspect=fixed;" vertex="1" parent="1">
          <mxGeometry x="390" y="1230" width="80" height="80" as="geometry" />
        </mxCell>
        <mxCell id="V0XN5CRiZY2vASkGpkIL-61" value="" style="ellipse;whiteSpace=wrap;html=1;aspect=fixed;" vertex="1" parent="1">
          <mxGeometry x="240" y="1400" width="80" height="80" as="geometry" />
        </mxCell>
        <mxCell id="V0XN5CRiZY2vASkGpkIL-62" value="" style="ellipse;whiteSpace=wrap;html=1;aspect=fixed;" vertex="1" parent="1">
          <mxGeometry x="240" y="1290" width="80" height="80" as="geometry" />
        </mxCell>
        <mxCell id="V0XN5CRiZY2vASkGpkIL-63" value="" style="rounded=0;whiteSpace=wrap;html=1;" vertex="1" parent="1">
          <mxGeometry x="625" y="1250" width="120" height="60" as="geometry" />
        </mxCell>
        <mxCell id="V0XN5CRiZY2vASkGpkIL-64" value="" style="ellipse;whiteSpace=wrap;html=1;aspect=fixed;" vertex="1" parent="1">
          <mxGeometry x="390" y="1570" width="80" height="80" as="geometry" />
        </mxCell>
        <mxCell id="V0XN5CRiZY2vASkGpkIL-65" value="" style="ellipse;whiteSpace=wrap;html=1;aspect=fixed;" vertex="1" parent="1">
          <mxGeometry x="240" y="1560" width="80" height="80" as="geometry" />
        </mxCell>
        <mxCell id="V0XN5CRiZY2vASkGpkIL-66" value="" style="rounded=0;whiteSpace=wrap;html=1;" vertex="1" parent="1">
          <mxGeometry x="70" y="1700" width="120" height="60" as="geometry" />
        </mxCell>
        <mxCell id="V0XN5CRiZY2vASkGpkIL-67" value="" style="edgeStyle=segmentEdgeStyle;endArrow=classic;html=1;exitX=0;exitY=0.75;exitDx=0;exitDy=0;" edge="1" parent="1" source="V0XN5CRiZY2vASkGpkIL-63" target="V0XN5CRiZY2vASkGpkIL-60">
          <mxGeometry width="50" height="50" relative="1" as="geometry">
            <mxPoint x="400" y="1490" as="sourcePoint" />
            <mxPoint x="450" y="1440" as="targetPoint" />
          </mxGeometry>
        </mxCell>
        <mxCell id="V0XN5CRiZY2vASkGpkIL-68" value="Creates survey" style="text;html=1;align=center;verticalAlign=middle;resizable=0;points=[];autosize=1;strokeColor=none;" vertex="1" parent="1">
          <mxGeometry x="490" y="1270" width="100" height="20" as="geometry" />
        </mxCell>
        <mxCell id="V0XN5CRiZY2vASkGpkIL-69" value="" style="edgeStyle=segmentEdgeStyle;endArrow=classic;html=1;" edge="1" parent="1" source="V0XN5CRiZY2vASkGpkIL-63" target="V0XN5CRiZY2vASkGpkIL-58">
          <mxGeometry width="50" height="50" relative="1" as="geometry">
            <mxPoint x="400" y="1490" as="sourcePoint" />
            <mxPoint x="450" y="1440" as="targetPoint" />
            <Array as="points">
              <mxPoint x="685" y="1360" />
            </Array>
          </mxGeometry>
        </mxCell>
        <mxCell id="V0XN5CRiZY2vASkGpkIL-70" value="Email" style="text;html=1;align=center;verticalAlign=middle;resizable=0;points=[];autosize=1;strokeColor=none;" vertex="1" parent="1">
          <mxGeometry x="555" y="1360" width="50" height="20" as="geometry" />
        </mxCell>
      </root>
    </mxGraphModel>
  </diagram>
</mxfile>
